<svg xmlns="http://www.w3.org/2000/svg">
	<symbol id="logo" viewBox="0 0 122 57" fill="none">
        <path d="M69.752 22.2363C69.752 22.6688 70.1026 23.0194 70.535 23.0194H71.9714C72.4038 23.0194 72.7544 22.6688 72.7544 22.2363C72.7544 21.8039 72.4038 21.4533 71.9714 21.4533H70.535C70.1026 21.4533 69.752 21.8039 69.752 22.2363Z" fill="currentColor"/>
        <path d="M80.0061 26.4806C79.845 26.4806 79.6873 26.4951 79.5334 26.5212L74.3725 17.9589C74.3933 17.9336 74.4131 17.9073 74.4309 17.879L77.8967 12.3746C78.0404 12.1464 78.0564 11.8603 77.9395 11.6174C77.8224 11.3745 77.5885 11.2088 77.3205 11.1791L71.6346 10.5477L72.2802 4.86373C72.3106 4.59603 72.2013 4.33146 71.9906 4.16334C71.7802 3.99531 71.4979 3.94723 71.2435 4.03631L65.8439 5.92653L63.9585 0.525034C63.8696 0.270412 63.6561 0.0794463 63.3931 0.0195679C63.1304 -0.0401263 62.855 0.0392819 62.6646 0.230248L58.6251 4.28218L54.5855 0.230248C54.3951 0.0392819 54.1197 -0.0403106 53.857 0.0195679C53.5941 0.0794463 53.3805 0.270505 53.2916 0.524942L51.4062 5.92644L46.0066 4.03631C45.7521 3.94732 45.47 3.99522 45.2594 4.16334C45.0488 4.33137 44.9393 4.59594 44.9697 4.86373L45.6153 10.5477L39.9295 11.1792C39.6615 11.2089 39.4277 11.3745 39.3106 11.6175C39.1935 11.8604 39.2096 12.1464 39.3533 12.3747L42.4013 17.2156L37.5575 20.2576C37.3294 20.4008 37.191 20.6513 37.191 20.9206C37.191 21.19 37.3294 21.4404 37.5575 21.5837L42.4014 24.6257L39.3534 29.4667C39.2015 29.7079 39.1928 30.0125 39.3304 30.262C39.4679 30.5115 39.7302 30.6666 40.0152 30.667L77.5944 30.7093C78.0832 31.5329 78.9811 32.0865 80.0062 32.0865C81.5517 32.0865 82.8091 30.8291 82.8091 29.2835C82.809 27.7379 81.5516 26.4806 80.0061 26.4806ZM77.2068 29.1428L63.2456 29.127C61.3969 22.8652 65.975 17.9954 71.3157 15.9213L78.1207 27.2112C77.5898 27.6947 77.2448 28.379 77.2068 29.1428ZM44.1443 24.7968C44.2551 24.6209 44.2914 24.4082 44.2452 24.2056C44.199 24.003 44.0742 23.8271 43.8982 23.7164L39.4464 20.9206L43.8982 18.1247C44.0742 18.0141 44.1991 17.8382 44.2452 17.6355C44.2915 17.4329 44.2551 17.2202 44.1443 17.0443L41.3444 12.5975L46.5684 12.0174C46.7752 11.9944 46.9642 11.8901 47.094 11.7276C47.2238 11.565 47.2835 11.3574 47.26 11.1508L46.6667 5.92644L51.6284 7.66337C51.8244 7.732 52.0398 7.71975 52.2271 7.62975C52.4143 7.53947 52.5579 7.37854 52.6264 7.1825L54.3585 2.22061L58.0705 5.94403C58.2174 6.09143 58.417 6.17424 58.6251 6.17424C58.8332 6.17424 59.0327 6.09143 59.1796 5.94403L62.8917 2.22061L64.6237 7.1825C64.6921 7.37872 64.8358 7.53966 65.023 7.62984C65.2101 7.72003 65.4256 7.73219 65.6217 7.66347L70.5835 5.92653L69.9902 11.1509C69.9667 11.3575 70.0265 11.5651 70.1562 11.7276C70.2859 11.8903 70.475 11.9945 70.6817 12.0175L75.9057 12.5975L73.4714 16.4636L72.3236 14.5593C72.1325 14.2424 71.7459 14.1027 71.3968 14.2235C67.8059 15.4669 64.8564 17.6385 63.0918 20.3383C61.3344 23.0272 60.8337 26.0454 61.6207 29.125L41.4336 29.1023L44.1443 24.7968ZM80.0061 30.5204C79.3241 30.5204 78.7693 29.9655 78.7693 29.2835C78.7693 28.6014 79.3241 28.0465 80.0061 28.0465C80.6881 28.0465 81.243 28.6014 81.243 29.2835C81.243 29.9655 80.6881 30.5204 80.0061 30.5204Z" fill="currentColor"/>
        <path d="M16.104 55.545C16.148 55.545 16.17 55.589 16.17 55.677C16.17 55.765 16.148 55.809 16.104 55.809C15.5906 55.809 15.18 55.8017 14.872 55.787L13.178 55.765L11.198 55.787C10.934 55.8017 10.5746 55.809 10.12 55.809C10.076 55.809 10.054 55.765 10.054 55.677C10.054 55.589 10.076 55.545 10.12 55.545C10.6626 55.545 11.0586 55.5084 11.308 55.435C11.5573 55.3617 11.726 55.2224 11.814 55.017C11.902 54.8117 11.946 54.4817 11.946 54.027V48.967H4.83997V54.027C4.83997 54.467 4.88397 54.797 4.97197 55.017C5.05997 55.2224 5.22863 55.3617 5.47797 55.435C5.7273 55.5084 6.1233 55.545 6.66597 55.545C6.6953 55.545 6.70997 55.589 6.70997 55.677C6.70997 55.765 6.6953 55.809 6.66597 55.809C6.15263 55.809 5.74197 55.8017 5.43397 55.787L3.51997 55.765L1.86997 55.787C1.57663 55.8017 1.1733 55.809 0.659967 55.809C0.630633 55.809 0.615967 55.765 0.615967 55.677C0.615967 55.589 0.630633 55.545 0.659967 55.545C1.1733 55.545 1.5473 55.5084 1.78197 55.435C2.01663 55.3617 2.17797 55.2224 2.26597 55.017C2.35397 54.797 2.39797 54.467 2.39797 54.027V43.841C2.39797 43.401 2.35397 43.0784 2.26597 42.873C2.17797 42.6677 2.01663 42.5284 1.78197 42.455C1.56197 42.367 1.20263 42.323 0.703967 42.323C0.659967 42.323 0.637967 42.279 0.637967 42.191C0.637967 42.103 0.659967 42.059 0.703967 42.059L1.89197 42.081C2.56663 42.1104 3.1093 42.125 3.51997 42.125C4.0773 42.125 4.72263 42.1104 5.45597 42.081L6.66597 42.059C6.6953 42.059 6.70997 42.103 6.70997 42.191C6.70997 42.279 6.6953 42.323 6.66597 42.323C6.13797 42.323 5.7493 42.367 5.49997 42.455C5.25063 42.543 5.07463 42.697 4.97197 42.917C4.88397 43.1224 4.83997 43.445 4.83997 43.885V48.351H11.946V43.885C11.946 43.445 11.902 43.1224 11.814 42.917C11.726 42.697 11.5573 42.543 11.308 42.455C11.0586 42.367 10.6626 42.323 10.12 42.323C10.076 42.323 10.054 42.279 10.054 42.191C10.054 42.103 10.076 42.059 10.12 42.059L11.198 42.081C11.9313 42.1104 12.5913 42.125 13.178 42.125C13.574 42.125 14.1386 42.1104 14.872 42.081L16.104 42.059C16.148 42.059 16.17 42.103 16.17 42.191C16.17 42.279 16.148 42.323 16.104 42.323C15.6053 42.323 15.2313 42.367 14.982 42.455C14.7473 42.5284 14.586 42.6677 14.498 42.873C14.4246 43.0784 14.388 43.401 14.388 43.841V54.027C14.388 54.467 14.4246 54.797 14.498 55.017C14.586 55.2224 14.7473 55.3617 14.982 55.435C15.2166 55.5084 15.5906 55.545 16.104 55.545Z" fill="currentColor"/>
        <path d="M27.7127 52.311C27.7127 52.2817 27.7421 52.267 27.8007 52.267C27.8447 52.267 27.8814 52.2817 27.9107 52.311C27.9547 52.3257 27.9767 52.3404 27.9767 52.355C27.8301 53.499 27.7567 54.5404 27.7567 55.479C27.7567 55.5964 27.7347 55.6844 27.6907 55.743C27.6467 55.787 27.5587 55.809 27.4267 55.809H17.7027C17.6587 55.809 17.6367 55.765 17.6367 55.677C17.6367 55.589 17.6587 55.545 17.7027 55.545C18.1721 55.545 18.5094 55.5084 18.7147 55.435C18.9347 55.3617 19.0814 55.2224 19.1547 55.017C19.2281 54.797 19.2647 54.467 19.2647 54.027V43.841C19.2647 43.401 19.2281 43.0784 19.1547 42.873C19.0814 42.6677 18.9347 42.5284 18.7147 42.455C18.4947 42.367 18.1574 42.323 17.7027 42.323C17.6587 42.323 17.6367 42.279 17.6367 42.191C17.6367 42.103 17.6587 42.059 17.7027 42.059H27.0307C27.1774 42.059 27.2507 42.125 27.2507 42.257L27.2947 45.183C27.2947 45.2124 27.2507 45.2344 27.1627 45.249C27.0894 45.2637 27.0454 45.249 27.0307 45.205C26.7961 44.3544 26.4001 43.7237 25.8427 43.313C25.2854 42.9024 24.5521 42.697 23.6427 42.697H22.9827C22.5427 42.697 22.2201 42.7924 22.0147 42.983C21.8094 43.1737 21.7067 43.467 21.7067 43.863V48.351H23.5327C24.3834 48.351 25.0361 48.2044 25.4907 47.911C25.9454 47.6177 26.1727 47.207 26.1727 46.679C26.1727 46.635 26.2094 46.613 26.2827 46.613C26.3707 46.613 26.4147 46.635 26.4147 46.679L26.3927 48.659L26.4147 49.715C26.4441 50.2137 26.4587 50.6097 26.4587 50.903C26.4587 50.9324 26.4147 50.947 26.3267 50.947C26.2387 50.947 26.1947 50.9324 26.1947 50.903C26.1947 50.3017 25.9601 49.8324 25.4907 49.495C25.0361 49.143 24.3761 48.967 23.5107 48.967H21.7067V53.939C21.7067 54.3644 21.7874 54.6797 21.9487 54.885C22.1101 55.0904 22.3667 55.193 22.7187 55.193H23.4447C24.5887 55.193 25.5054 54.9584 26.1947 54.489C26.8841 54.0197 27.3901 53.2937 27.7127 52.311Z" fill="currentColor"/>
        <path d="M36.1114 55.897C35.6421 55.897 35.0848 55.875 34.4394 55.831C34.2048 55.8164 33.9114 55.8017 33.5594 55.787C33.2221 55.7724 32.8408 55.765 32.4154 55.765L30.7874 55.787C30.4941 55.8017 30.0981 55.809 29.5994 55.809C29.5701 55.809 29.5554 55.765 29.5554 55.677C29.5554 55.589 29.5701 55.545 29.5994 55.545C30.0688 55.545 30.4134 55.5084 30.6334 55.435C30.8534 55.3617 31.0001 55.2224 31.0734 55.017C31.1614 54.797 31.2054 54.467 31.2054 54.027V43.841C31.2054 43.401 31.1614 43.0784 31.0734 42.873C31.0001 42.6677 30.8534 42.5284 30.6334 42.455C30.4281 42.367 30.0981 42.323 29.6434 42.323C29.5994 42.323 29.5774 42.279 29.5774 42.191C29.5774 42.103 29.5994 42.059 29.6434 42.059L30.8094 42.081C31.4841 42.1104 32.0194 42.125 32.4154 42.125C33.0168 42.125 33.6328 42.103 34.2634 42.059C35.0261 42.0297 35.5394 42.015 35.8034 42.015C37.2848 42.015 38.5974 42.3084 39.7414 42.895C40.9001 43.4817 41.7948 44.281 42.4254 45.293C43.0561 46.305 43.3714 47.4417 43.3714 48.703C43.3714 50.1257 43.0414 51.387 42.3814 52.487C41.7361 53.5724 40.8561 54.4157 39.7414 55.017C38.6414 55.6037 37.4314 55.897 36.1114 55.897ZM35.8914 55.391C36.8301 55.391 37.6588 55.1564 38.3774 54.687C39.0961 54.203 39.6534 53.4917 40.0494 52.553C40.4601 51.6144 40.6654 50.4924 40.6654 49.187C40.6654 47.9404 40.4748 46.811 40.0934 45.799C39.7121 44.7724 39.1694 43.9657 38.4654 43.379C37.7614 42.7924 36.9474 42.499 36.0234 42.499C35.1141 42.499 34.4908 42.587 34.1534 42.763C33.8161 42.939 33.6474 43.313 33.6474 43.885V53.785C33.6474 54.3717 33.8014 54.7897 34.1094 55.039C34.4174 55.2737 35.0114 55.391 35.8914 55.391Z" fill="currentColor"/>
        <path d="M53.4491 56.073C51.8358 56.073 50.4278 55.765 49.2251 55.149C48.0225 54.533 47.1058 53.697 46.4751 52.641C45.8445 51.5704 45.5291 50.3824 45.5291 49.077C45.5291 47.669 45.8885 46.415 46.6071 45.315C47.3405 44.2004 48.3378 43.3424 49.5991 42.741C50.8751 42.125 52.2978 41.817 53.8671 41.817C54.5565 41.817 55.2531 41.8757 55.9571 41.993C56.6611 42.0957 57.2258 42.235 57.6511 42.411C57.7831 42.455 57.8638 42.5137 57.8931 42.587C57.9371 42.6457 57.9665 42.7557 57.9811 42.917L58.2671 45.975C58.2671 46.019 58.2305 46.0484 58.1571 46.063C58.0838 46.0777 58.0325 46.0557 58.0031 45.997C57.4898 44.8677 56.7785 43.9877 55.8691 43.357C54.9745 42.7264 53.9478 42.411 52.7891 42.411C51.2931 42.411 50.1491 42.9317 49.3571 43.973C48.5798 45.0144 48.1911 46.437 48.1911 48.241C48.1911 49.693 48.4405 50.991 48.9391 52.135C49.4378 53.2644 50.1271 54.1444 51.0071 54.775C51.9018 55.391 52.8991 55.699 53.9991 55.699C54.6005 55.699 55.0625 55.633 55.3851 55.501C55.7078 55.369 55.9425 55.1124 56.0891 54.731C56.2358 54.3497 56.3091 53.785 56.3091 53.037C56.3091 52.2744 56.2651 51.7464 56.1771 51.453C56.0891 51.145 55.8985 50.9397 55.6051 50.837C55.3265 50.7344 54.8351 50.683 54.1311 50.683C54.0431 50.683 53.9991 50.6244 53.9991 50.507C53.9991 50.463 54.0065 50.4264 54.0211 50.397C54.0505 50.353 54.0798 50.331 54.1091 50.331C55.3558 50.4044 56.3605 50.441 57.1231 50.441C57.8711 50.441 58.6485 50.419 59.4551 50.375C59.4845 50.375 59.5065 50.397 59.5211 50.441C59.5505 50.4704 59.5651 50.4997 59.5651 50.529C59.5651 50.6317 59.5285 50.683 59.4551 50.683C59.1911 50.6684 59.0078 50.7197 58.9051 50.837C58.8025 50.9397 58.7365 51.1597 58.7071 51.497C58.6778 51.8197 58.6631 52.4064 58.6631 53.257C58.6631 53.917 58.6851 54.3864 58.7291 54.665C58.7878 54.9437 58.8171 55.1197 58.8171 55.193C58.8171 55.281 58.7951 55.3397 58.7511 55.369C58.7218 55.3984 58.6558 55.4277 58.5531 55.457C56.6611 55.8677 54.9598 56.073 53.4491 56.073Z" fill="currentColor"/>
        <path d="M71.1756 52.311C71.1756 52.2817 71.205 52.267 71.2636 52.267C71.3076 52.267 71.3443 52.2817 71.3736 52.311C71.4176 52.3257 71.4396 52.3404 71.4396 52.355C71.293 53.499 71.2196 54.5404 71.2196 55.479C71.2196 55.5964 71.1976 55.6844 71.1536 55.743C71.1096 55.787 71.0216 55.809 70.8896 55.809H61.1656C61.1216 55.809 61.0996 55.765 61.0996 55.677C61.0996 55.589 61.1216 55.545 61.1656 55.545C61.635 55.545 61.9723 55.5084 62.1776 55.435C62.3976 55.3617 62.5443 55.2224 62.6176 55.017C62.691 54.797 62.7276 54.467 62.7276 54.027V43.841C62.7276 43.401 62.691 43.0784 62.6176 42.873C62.5443 42.6677 62.3976 42.5284 62.1776 42.455C61.9576 42.367 61.6203 42.323 61.1656 42.323C61.1216 42.323 61.0996 42.279 61.0996 42.191C61.0996 42.103 61.1216 42.059 61.1656 42.059H70.4936C70.6403 42.059 70.7136 42.125 70.7136 42.257L70.7576 45.183C70.7576 45.2124 70.7136 45.2344 70.6256 45.249C70.5523 45.2637 70.5083 45.249 70.4936 45.205C70.259 44.3544 69.863 43.7237 69.3056 43.313C68.7483 42.9024 68.015 42.697 67.1056 42.697H66.4456C66.0056 42.697 65.683 42.7924 65.4776 42.983C65.2723 43.1737 65.1696 43.467 65.1696 43.863V48.351H66.9956C67.8463 48.351 68.499 48.2044 68.9536 47.911C69.4083 47.6177 69.6356 47.207 69.6356 46.679C69.6356 46.635 69.6723 46.613 69.7456 46.613C69.8336 46.613 69.8776 46.635 69.8776 46.679L69.8556 48.659L69.8776 49.715C69.907 50.2137 69.9216 50.6097 69.9216 50.903C69.9216 50.9324 69.8776 50.947 69.7896 50.947C69.7016 50.947 69.6576 50.9324 69.6576 50.903C69.6576 50.3017 69.423 49.8324 68.9536 49.495C68.499 49.143 67.839 48.967 66.9736 48.967H65.1696V53.939C65.1696 54.3644 65.2503 54.6797 65.4116 54.885C65.573 55.0904 65.8296 55.193 66.1816 55.193H66.9076C68.0516 55.193 68.9683 54.9584 69.6576 54.489C70.347 54.0197 70.853 53.2937 71.1756 52.311Z" fill="currentColor"/>
        <path d="M88.5063 55.545C88.5503 55.545 88.5723 55.589 88.5723 55.677C88.5723 55.765 88.5503 55.809 88.5063 55.809C87.993 55.809 87.5823 55.8017 87.2743 55.787L85.5803 55.765L83.6003 55.787C83.3363 55.8017 82.977 55.809 82.5223 55.809C82.4783 55.809 82.4563 55.765 82.4563 55.677C82.4563 55.589 82.4783 55.545 82.5223 55.545C83.065 55.545 83.461 55.5084 83.7103 55.435C83.9596 55.3617 84.1283 55.2224 84.2163 55.017C84.3043 54.8117 84.3483 54.4817 84.3483 54.027V48.967H77.2423V54.027C77.2423 54.467 77.2863 54.797 77.3743 55.017C77.4623 55.2224 77.631 55.3617 77.8803 55.435C78.1296 55.5084 78.5257 55.545 79.0683 55.545C79.0976 55.545 79.1123 55.589 79.1123 55.677C79.1123 55.765 79.0976 55.809 79.0683 55.809C78.555 55.809 78.1443 55.8017 77.8363 55.787L75.9223 55.765L74.2723 55.787C73.979 55.8017 73.5756 55.809 73.0623 55.809C73.033 55.809 73.0183 55.765 73.0183 55.677C73.0183 55.589 73.033 55.545 73.0623 55.545C73.5756 55.545 73.9496 55.5084 74.1843 55.435C74.419 55.3617 74.5803 55.2224 74.6683 55.017C74.7563 54.797 74.8003 54.467 74.8003 54.027V43.841C74.8003 43.401 74.7563 43.0784 74.6683 42.873C74.5803 42.6677 74.419 42.5284 74.1843 42.455C73.9643 42.367 73.605 42.323 73.1063 42.323C73.0623 42.323 73.0403 42.279 73.0403 42.191C73.0403 42.103 73.0623 42.059 73.1063 42.059L74.2943 42.081C74.969 42.1104 75.5116 42.125 75.9223 42.125C76.4796 42.125 77.125 42.1104 77.8583 42.081L79.0683 42.059C79.0976 42.059 79.1123 42.103 79.1123 42.191C79.1123 42.279 79.0976 42.323 79.0683 42.323C78.5403 42.323 78.1516 42.367 77.9023 42.455C77.653 42.543 77.477 42.697 77.3743 42.917C77.2863 43.1224 77.2423 43.445 77.2423 43.885V48.351H84.3483V43.885C84.3483 43.445 84.3043 43.1224 84.2163 42.917C84.1283 42.697 83.9596 42.543 83.7103 42.455C83.461 42.367 83.065 42.323 82.5223 42.323C82.4783 42.323 82.4563 42.279 82.4563 42.191C82.4563 42.103 82.4783 42.059 82.5223 42.059L83.6003 42.081C84.3336 42.1104 84.9936 42.125 85.5803 42.125C85.9763 42.125 86.541 42.1104 87.2743 42.081L88.5063 42.059C88.5503 42.059 88.5723 42.103 88.5723 42.191C88.5723 42.279 88.5503 42.323 88.5063 42.323C88.0076 42.323 87.6337 42.367 87.3843 42.455C87.1497 42.5284 86.9883 42.6677 86.9003 42.873C86.827 43.0784 86.7903 43.401 86.7903 43.841V54.027C86.7903 54.467 86.827 54.797 86.9003 55.017C86.9883 55.2224 87.1497 55.3617 87.3843 55.435C87.619 55.5084 87.993 55.545 88.5063 55.545Z" fill="currentColor"/>
        <path d="M97.2551 56.073C95.8911 56.073 94.6738 55.7577 93.6031 55.127C92.5471 54.4817 91.7258 53.6164 91.1391 52.531C90.5671 51.431 90.2811 50.2357 90.2811 48.945C90.2811 47.4344 90.6624 46.1437 91.4251 45.073C92.1878 43.9877 93.1631 43.1737 94.3511 42.631C95.5538 42.0884 96.7784 41.817 98.0251 41.817C99.4184 41.817 100.643 42.147 101.699 42.807C102.755 43.4524 103.562 44.3104 104.119 45.381C104.691 46.4517 104.977 47.5884 104.977 48.791C104.977 50.1257 104.625 51.3504 103.921 52.465C103.217 53.5797 102.271 54.4597 101.083 55.105C99.9098 55.7504 98.6338 56.073 97.2551 56.073ZM97.9811 55.523C98.8024 55.523 99.5358 55.2884 100.181 54.819C100.841 54.335 101.354 53.6384 101.721 52.729C102.088 51.805 102.271 50.705 102.271 49.429C102.271 48.0797 102.066 46.877 101.655 45.821C101.244 44.7504 100.65 43.9144 99.8731 43.313C99.0958 42.7117 98.1864 42.411 97.1451 42.411C95.8104 42.411 94.7838 42.917 94.0651 43.929C93.3464 44.9264 92.9871 46.327 92.9871 48.131C92.9871 49.5537 93.1998 50.8297 93.6251 51.959C94.0651 53.0737 94.6591 53.9464 95.4071 54.577C96.1698 55.2077 97.0278 55.523 97.9811 55.523Z" fill="currentColor"/>
        <path d="M115.045 56.073C113.432 56.073 112.024 55.765 110.821 55.149C109.618 54.533 108.702 53.697 108.071 52.641C107.44 51.5704 107.125 50.3824 107.125 49.077C107.125 47.669 107.484 46.415 108.203 45.315C108.936 44.2004 109.934 43.3424 111.195 42.741C112.471 42.125 113.894 41.817 115.463 41.817C116.152 41.817 116.849 41.8757 117.553 41.993C118.257 42.0957 118.822 42.235 119.247 42.411C119.379 42.455 119.46 42.5137 119.489 42.587C119.533 42.6457 119.562 42.7557 119.577 42.917L119.863 45.975C119.863 46.019 119.826 46.0484 119.753 46.063C119.68 46.0777 119.628 46.0557 119.599 45.997C119.086 44.8677 118.374 43.9877 117.465 43.357C116.57 42.7264 115.544 42.411 114.385 42.411C112.889 42.411 111.745 42.9317 110.953 43.973C110.176 45.0144 109.787 46.437 109.787 48.241C109.787 49.693 110.036 50.991 110.535 52.135C111.034 53.2644 111.723 54.1444 112.603 54.775C113.498 55.391 114.495 55.699 115.595 55.699C116.196 55.699 116.658 55.633 116.981 55.501C117.304 55.369 117.538 55.1124 117.685 54.731C117.832 54.3497 117.905 53.785 117.905 53.037C117.905 52.2744 117.861 51.7464 117.773 51.453C117.685 51.145 117.494 50.9397 117.201 50.837C116.922 50.7344 116.431 50.683 115.727 50.683C115.639 50.683 115.595 50.6244 115.595 50.507C115.595 50.463 115.602 50.4264 115.617 50.397C115.646 50.353 115.676 50.331 115.705 50.331C116.952 50.4044 117.956 50.441 118.719 50.441C119.467 50.441 120.244 50.419 121.051 50.375C121.08 50.375 121.102 50.397 121.117 50.441C121.146 50.4704 121.161 50.4997 121.161 50.529C121.161 50.6317 121.124 50.683 121.051 50.683C120.787 50.6684 120.604 50.7197 120.501 50.837C120.398 50.9397 120.332 51.1597 120.303 51.497C120.274 51.8197 120.259 52.4064 120.259 53.257C120.259 53.917 120.281 54.3864 120.325 54.665C120.384 54.9437 120.413 55.1197 120.413 55.193C120.413 55.281 120.391 55.3397 120.347 55.369C120.318 55.3984 120.252 55.4277 120.149 55.457C118.257 55.8677 116.556 56.073 115.045 56.073Z" fill="currentColor"/>
        <path d="M86.7191 17.9983H118V19.3016H86.7191V17.9983Z" fill="currentColor"/>
        <path d="M1.99997 17.9983H31.9775V19.3016H1.99997V17.9983Z" fill="currentColor"/>
    </symbol>
    <symbol id="logo-white" viewBox="0 0 132 57" fill="none">
        <path d="M69.7521 22.2364C69.7521 22.6688 70.1027 23.0194 70.5351 23.0194H71.9714C72.4039 23.0194 72.7545 22.6688 72.7545 22.2364C72.7545 21.804 72.4039 21.4534 71.9714 21.4534H70.5351C70.1027 21.4534 69.7521 21.804 69.7521 22.2364Z" fill="white"/>
        <path d="M80.0062 26.4806C79.845 26.4806 79.6873 26.4951 79.5335 26.5212L74.3726 17.9589C74.3933 17.9336 74.4131 17.9073 74.431 17.879L77.8968 12.3746C78.0405 12.1464 78.0565 11.8603 77.9395 11.6174C77.8224 11.3745 77.5885 11.2088 77.3206 11.1791L71.6347 10.5477L72.2803 4.86373C72.3107 4.59603 72.2014 4.33146 71.9906 4.16334C71.7802 3.99531 71.498 3.94723 71.2435 4.03631L65.844 5.92653L63.9585 0.525034C63.8696 0.270412 63.6561 0.0794463 63.3932 0.0195679C63.1305 -0.0401263 62.855 0.0392819 62.6647 0.230248L58.6251 4.28218L54.5855 0.230248C54.3951 0.0392819 54.1198 -0.0403106 53.8571 0.0195679C53.5941 0.0794463 53.3806 0.270505 53.2917 0.524942L51.4063 5.92644L46.0066 4.03631C45.7522 3.94732 45.47 3.99522 45.2594 4.16334C45.0488 4.33137 44.9394 4.59594 44.9698 4.86373L45.6154 10.5477L39.9296 11.1792C39.6615 11.2089 39.4277 11.3745 39.3106 11.6175C39.1936 11.8604 39.2097 12.1464 39.3534 12.3747L42.4014 17.2156L37.5576 20.2576C37.3295 20.4008 37.191 20.6513 37.191 20.9206C37.191 21.19 37.3295 21.4404 37.5576 21.5837L42.4015 24.6257L39.3535 29.4667C39.2016 29.7079 39.1928 30.0125 39.3305 30.262C39.468 30.5115 39.7303 30.6666 40.0153 30.667L77.5944 30.7093C78.0832 31.5329 78.9811 32.0865 80.0062 32.0865C81.5518 32.0865 82.8092 30.8291 82.8092 29.2835C82.809 27.7379 81.5517 26.4806 80.0062 26.4806ZM77.2069 29.1428L63.2456 29.127C61.3969 22.8652 65.9751 17.9954 71.3158 15.9213L78.1207 27.2112C77.5898 27.6947 77.2448 28.379 77.2069 29.1428ZM44.1444 24.7968C44.2551 24.6209 44.2914 24.4082 44.2453 24.2056C44.199 24.003 44.0743 23.8271 43.8983 23.7164L39.4464 20.9206L43.8983 18.1247C44.0743 18.0141 44.1991 17.8382 44.2453 17.6355C44.2915 17.4329 44.2551 17.2202 44.1444 17.0443L41.3445 12.5975L46.5685 12.0174C46.7753 11.9944 46.9643 11.8901 47.0941 11.7276C47.2239 11.565 47.2836 11.3574 47.2601 11.1508L46.6668 5.92644L51.6285 7.66337C51.8245 7.732 52.0399 7.71975 52.2272 7.62975C52.4144 7.53947 52.558 7.37854 52.6265 7.1825L54.3586 2.22061L58.0706 5.94403C58.2175 6.09143 58.417 6.17424 58.6251 6.17424C58.8332 6.17424 59.0328 6.09143 59.1797 5.94403L62.8918 2.22061L64.6237 7.1825C64.6922 7.37872 64.8359 7.53966 65.0231 7.62984C65.2102 7.72003 65.4257 7.73219 65.6218 7.66347L70.5836 5.92653L69.9902 11.1509C69.9667 11.3575 70.0265 11.5651 70.1562 11.7276C70.2859 11.8903 70.4751 11.9945 70.6818 12.0175L75.9058 12.5975L73.4715 16.4636L72.3237 14.5593C72.1326 14.2424 71.746 14.1027 71.3968 14.2235C67.806 15.4669 64.8564 17.6385 63.0919 20.3383C61.3345 23.0272 60.8338 26.0454 61.6208 29.125L41.4337 29.1023L44.1444 24.7968ZM80.0062 30.5204C79.3242 30.5204 78.7693 29.9655 78.7693 29.2835C78.7693 28.6014 79.3242 28.0465 80.0062 28.0465C80.6881 28.0465 81.2431 28.6014 81.2431 29.2835C81.2431 29.9655 80.6881 30.5204 80.0062 30.5204Z" fill="white"/>
        <path d="M16.104 55.5451C16.148 55.5451 16.17 55.5891 16.17 55.6771C16.17 55.7651 16.148 55.8091 16.104 55.8091C15.5907 55.8091 15.18 55.8017 14.872 55.7871L13.178 55.7651L11.198 55.7871C10.934 55.8017 10.5747 55.8091 10.12 55.8091C10.076 55.8091 10.054 55.7651 10.054 55.6771C10.054 55.5891 10.076 55.5451 10.12 55.5451C10.6627 55.5451 11.0587 55.5084 11.308 55.4351C11.5573 55.3617 11.726 55.2224 11.814 55.0171C11.902 54.8117 11.946 54.4817 11.946 54.0271V48.9671H4.84V54.0271C4.84 54.4671 4.884 54.7971 4.972 55.0171C5.06 55.2224 5.22867 55.3617 5.478 55.4351C5.72733 55.5084 6.12333 55.5451 6.666 55.5451C6.69533 55.5451 6.71 55.5891 6.71 55.6771C6.71 55.7651 6.69533 55.8091 6.666 55.8091C6.15267 55.8091 5.742 55.8017 5.434 55.7871L3.52 55.7651L1.87 55.7871C1.57667 55.8017 1.17333 55.8091 0.66 55.8091C0.630667 55.8091 0.616 55.7651 0.616 55.6771C0.616 55.5891 0.630667 55.5451 0.66 55.5451C1.17333 55.5451 1.54733 55.5084 1.782 55.4351C2.01667 55.3617 2.178 55.2224 2.266 55.0171C2.354 54.7971 2.398 54.4671 2.398 54.0271V43.8411C2.398 43.4011 2.354 43.0784 2.266 42.8731C2.178 42.6677 2.01667 42.5284 1.782 42.4551C1.562 42.3671 1.20267 42.3231 0.704 42.3231C0.66 42.3231 0.638 42.2791 0.638 42.1911C0.638 42.1031 0.66 42.0591 0.704 42.0591L1.892 42.0811C2.56667 42.1104 3.10933 42.1251 3.52 42.1251C4.07733 42.1251 4.72267 42.1104 5.456 42.0811L6.666 42.0591C6.69533 42.0591 6.71 42.1031 6.71 42.1911C6.71 42.2791 6.69533 42.3231 6.666 42.3231C6.138 42.3231 5.74933 42.3671 5.5 42.4551C5.25067 42.5431 5.07467 42.6971 4.972 42.9171C4.884 43.1224 4.84 43.4451 4.84 43.8851V48.3511H11.946V43.8851C11.946 43.4451 11.902 43.1224 11.814 42.9171C11.726 42.6971 11.5573 42.5431 11.308 42.4551C11.0587 42.3671 10.6627 42.3231 10.12 42.3231C10.076 42.3231 10.054 42.2791 10.054 42.1911C10.054 42.1031 10.076 42.0591 10.12 42.0591L11.198 42.0811C11.9313 42.1104 12.5913 42.1251 13.178 42.1251C13.574 42.1251 14.1387 42.1104 14.872 42.0811L16.104 42.0591C16.148 42.0591 16.17 42.1031 16.17 42.1911C16.17 42.2791 16.148 42.3231 16.104 42.3231C15.6053 42.3231 15.2313 42.3671 14.982 42.4551C14.7473 42.5284 14.586 42.6677 14.498 42.8731C14.4247 43.0784 14.388 43.4011 14.388 43.8411V54.0271C14.388 54.4671 14.4247 54.7971 14.498 55.0171C14.586 55.2224 14.7473 55.3617 14.982 55.4351C15.2167 55.5084 15.5907 55.5451 16.104 55.5451ZM27.7128 52.3111C27.7128 52.2817 27.7421 52.2671 27.8008 52.2671C27.8448 52.2671 27.8814 52.2817 27.9108 52.3111C27.9548 52.3257 27.9768 52.3404 27.9768 52.3551C27.8301 53.4991 27.7568 54.5404 27.7568 55.4791C27.7568 55.5964 27.7348 55.6844 27.6908 55.7431C27.6468 55.7871 27.5588 55.8091 27.4268 55.8091H17.7028C17.6588 55.8091 17.6368 55.7651 17.6368 55.6771C17.6368 55.5891 17.6588 55.5451 17.7028 55.5451C18.1721 55.5451 18.5094 55.5084 18.7148 55.4351C18.9348 55.3617 19.0814 55.2224 19.1548 55.0171C19.2281 54.7971 19.2648 54.4671 19.2648 54.0271V43.8411C19.2648 43.4011 19.2281 43.0784 19.1548 42.8731C19.0814 42.6677 18.9348 42.5284 18.7148 42.4551C18.4948 42.3671 18.1574 42.3231 17.7028 42.3231C17.6588 42.3231 17.6368 42.2791 17.6368 42.1911C17.6368 42.1031 17.6588 42.0591 17.7028 42.0591H27.0308C27.1774 42.0591 27.2508 42.1251 27.2508 42.2571L27.2948 45.1831C27.2948 45.2124 27.2508 45.2344 27.1628 45.2491C27.0894 45.2637 27.0454 45.2491 27.0308 45.2051C26.7961 44.3544 26.4001 43.7237 25.8428 43.3131C25.2854 42.9024 24.5521 42.6971 23.6428 42.6971H22.9828C22.5428 42.6971 22.2201 42.7924 22.0148 42.9831C21.8094 43.1737 21.7068 43.4671 21.7068 43.8631V48.3511H23.5328C24.3834 48.3511 25.0361 48.2044 25.4908 47.9111C25.9454 47.6177 26.1728 47.2071 26.1728 46.6791C26.1728 46.6351 26.2094 46.6131 26.2828 46.6131C26.3708 46.6131 26.4148 46.6351 26.4148 46.6791L26.3928 48.6591L26.4148 49.7151C26.4441 50.2137 26.4588 50.6097 26.4588 50.9031C26.4588 50.9324 26.4148 50.9471 26.3268 50.9471C26.2388 50.9471 26.1948 50.9324 26.1948 50.9031C26.1948 50.3017 25.9601 49.8324 25.4908 49.4951C25.0361 49.1431 24.3761 48.9671 23.5108 48.9671H21.7068V53.9391C21.7068 54.3644 21.7874 54.6797 21.9488 54.8851C22.1101 55.0904 22.3668 55.1931 22.7188 55.1931H23.4448C24.5888 55.1931 25.5054 54.9584 26.1948 54.4891C26.8841 54.0197 27.3901 53.2937 27.7128 52.3111ZM36.1115 55.8971C35.6421 55.8971 35.0848 55.8751 34.4395 55.8311C34.2048 55.8164 33.9115 55.8017 33.5595 55.7871C33.2221 55.7724 32.8408 55.7651 32.4155 55.7651L30.7875 55.7871C30.4941 55.8017 30.0981 55.8091 29.5995 55.8091C29.5701 55.8091 29.5555 55.7651 29.5555 55.6771C29.5555 55.5891 29.5701 55.5451 29.5995 55.5451C30.0688 55.5451 30.4135 55.5084 30.6335 55.4351C30.8535 55.3617 31.0001 55.2224 31.0735 55.0171C31.1615 54.7971 31.2055 54.4671 31.2055 54.0271V43.8411C31.2055 43.4011 31.1615 43.0784 31.0735 42.8731C31.0001 42.6677 30.8535 42.5284 30.6335 42.4551C30.4281 42.3671 30.0981 42.3231 29.6435 42.3231C29.5995 42.3231 29.5775 42.2791 29.5775 42.1911C29.5775 42.1031 29.5995 42.0591 29.6435 42.0591L30.8095 42.0811C31.4841 42.1104 32.0195 42.1251 32.4155 42.1251C33.0168 42.1251 33.6328 42.1031 34.2635 42.0591C35.0261 42.0297 35.5395 42.0151 35.8035 42.0151C37.2848 42.0151 38.5975 42.3084 39.7415 42.8951C40.9001 43.4817 41.7948 44.2811 42.4255 45.2931C43.0561 46.3051 43.3715 47.4417 43.3715 48.7031C43.3715 50.1257 43.0415 51.3871 42.3815 52.4871C41.7361 53.5724 40.8561 54.4157 39.7415 55.0171C38.6415 55.6037 37.4315 55.8971 36.1115 55.8971ZM35.8915 55.3911C36.8301 55.3911 37.6588 55.1564 38.3775 54.6871C39.0961 54.2031 39.6535 53.4917 40.0495 52.5531C40.4601 51.6144 40.6655 50.4924 40.6655 49.1871C40.6655 47.9404 40.4748 46.8111 40.0935 45.7991C39.7121 44.7724 39.1695 43.9657 38.4655 43.3791C37.7615 42.7924 36.9475 42.4991 36.0235 42.4991C35.1141 42.4991 34.4908 42.5871 34.1535 42.7631C33.8161 42.9391 33.6475 43.3131 33.6475 43.8851V53.7851C33.6475 54.3717 33.8015 54.7897 34.1095 55.0391C34.4175 55.2737 35.0115 55.3911 35.8915 55.3911ZM53.4492 56.0731C51.8358 56.0731 50.4278 55.7651 49.2252 55.1491C48.0225 54.5331 47.1058 53.6971 46.4752 52.6411C45.8445 51.5704 45.5292 50.3824 45.5292 49.0771C45.5292 47.6691 45.8885 46.4151 46.6072 45.3151C47.3405 44.2004 48.3378 43.3424 49.5992 42.7411C50.8752 42.1251 52.2978 41.8171 53.8672 41.8171C54.5565 41.8171 55.2532 41.8757 55.9572 41.9931C56.6612 42.0957 57.2258 42.2351 57.6512 42.4111C57.7832 42.4551 57.8638 42.5137 57.8932 42.5871C57.9372 42.6457 57.9665 42.7557 57.9812 42.9171L58.2672 45.9751C58.2672 46.0191 58.2305 46.0484 58.1572 46.0631C58.0838 46.0777 58.0325 46.0557 58.0032 45.9971C57.4898 44.8677 56.7785 43.9877 55.8692 43.3571C54.9745 42.7264 53.9478 42.4111 52.7892 42.4111C51.2932 42.4111 50.1492 42.9317 49.3572 43.9731C48.5798 45.0144 48.1912 46.4371 48.1912 48.2411C48.1912 49.6931 48.4405 50.9911 48.9392 52.1351C49.4378 53.2644 50.1272 54.1444 51.0072 54.7751C51.9018 55.3911 52.8992 55.6991 53.9992 55.6991C54.6005 55.6991 55.0625 55.6331 55.3852 55.5011C55.7078 55.3691 55.9425 55.1124 56.0892 54.7311C56.2358 54.3497 56.3092 53.7851 56.3092 53.0371C56.3092 52.2744 56.2652 51.7464 56.1772 51.4531C56.0892 51.1451 55.8985 50.9397 55.6052 50.8371C55.3265 50.7344 54.8352 50.6831 54.1312 50.6831C54.0432 50.6831 53.9992 50.6244 53.9992 50.5071C53.9992 50.4631 54.0065 50.4264 54.0212 50.3971C54.0505 50.3531 54.0798 50.3311 54.1092 50.3311C55.3558 50.4044 56.3605 50.4411 57.1232 50.4411C57.8712 50.4411 58.6485 50.4191 59.4552 50.3751C59.4845 50.3751 59.5065 50.3971 59.5212 50.4411C59.5505 50.4704 59.5652 50.4997 59.5652 50.5291C59.5652 50.6317 59.5285 50.6831 59.4552 50.6831C59.1912 50.6684 59.0078 50.7197 58.9052 50.8371C58.8025 50.9397 58.7365 51.1597 58.7072 51.4971C58.6778 51.8197 58.6632 52.4064 58.6632 53.2571C58.6632 53.9171 58.6852 54.3864 58.7292 54.6651C58.7878 54.9437 58.8172 55.1197 58.8172 55.1931C58.8172 55.2811 58.7952 55.3397 58.7512 55.3691C58.7218 55.3984 58.6558 55.4277 58.5532 55.4571C56.6612 55.8677 54.9598 56.0731 53.4492 56.0731ZM71.1757 52.3111C71.1757 52.2817 71.205 52.2671 71.2637 52.2671C71.3077 52.2671 71.3443 52.2817 71.3737 52.3111C71.4177 52.3257 71.4397 52.3404 71.4397 52.3551C71.293 53.4991 71.2197 54.5404 71.2197 55.4791C71.2197 55.5964 71.1977 55.6844 71.1537 55.7431C71.1097 55.7871 71.0217 55.8091 70.8897 55.8091H61.1657C61.1217 55.8091 61.0997 55.7651 61.0997 55.6771C61.0997 55.5891 61.1217 55.5451 61.1657 55.5451C61.635 55.5451 61.9723 55.5084 62.1777 55.4351C62.3977 55.3617 62.5443 55.2224 62.6177 55.0171C62.691 54.7971 62.7277 54.4671 62.7277 54.0271V43.8411C62.7277 43.4011 62.691 43.0784 62.6177 42.8731C62.5443 42.6677 62.3977 42.5284 62.1777 42.4551C61.9577 42.3671 61.6203 42.3231 61.1657 42.3231C61.1217 42.3231 61.0997 42.2791 61.0997 42.1911C61.0997 42.1031 61.1217 42.0591 61.1657 42.0591H70.4937C70.6403 42.0591 70.7137 42.1251 70.7137 42.2571L70.7577 45.1831C70.7577 45.2124 70.7137 45.2344 70.6257 45.2491C70.5523 45.2637 70.5083 45.2491 70.4937 45.2051C70.259 44.3544 69.863 43.7237 69.3057 43.3131C68.7483 42.9024 68.015 42.6971 67.1057 42.6971H66.4457C66.0057 42.6971 65.683 42.7924 65.4777 42.9831C65.2723 43.1737 65.1697 43.4671 65.1697 43.8631V48.3511H66.9957C67.8463 48.3511 68.499 48.2044 68.9537 47.9111C69.4083 47.6177 69.6357 47.2071 69.6357 46.6791C69.6357 46.6351 69.6723 46.6131 69.7457 46.6131C69.8337 46.6131 69.8777 46.6351 69.8777 46.6791L69.8557 48.6591L69.8777 49.7151C69.907 50.2137 69.9217 50.6097 69.9217 50.9031C69.9217 50.9324 69.8777 50.9471 69.7897 50.9471C69.7017 50.9471 69.6577 50.9324 69.6577 50.9031C69.6577 50.3017 69.423 49.8324 68.9537 49.4951C68.499 49.1431 67.839 48.9671 66.9737 48.9671H65.1697V53.9391C65.1697 54.3644 65.2503 54.6797 65.4117 54.8851C65.573 55.0904 65.8297 55.1931 66.1817 55.1931H66.9077C68.0517 55.1931 68.9683 54.9584 69.6577 54.4891C70.347 54.0197 70.853 53.2937 71.1757 52.3111ZM88.5063 55.5451C88.5503 55.5451 88.5723 55.5891 88.5723 55.6771C88.5723 55.7651 88.5503 55.8091 88.5063 55.8091C87.993 55.8091 87.5823 55.8017 87.2743 55.7871L85.5803 55.7651L83.6003 55.7871C83.3363 55.8017 82.977 55.8091 82.5223 55.8091C82.4783 55.8091 82.4563 55.7651 82.4563 55.6771C82.4563 55.5891 82.4783 55.5451 82.5223 55.5451C83.065 55.5451 83.461 55.5084 83.7103 55.4351C83.9597 55.3617 84.1283 55.2224 84.2163 55.0171C84.3043 54.8117 84.3483 54.4817 84.3483 54.0271V48.9671H77.2423V54.0271C77.2423 54.4671 77.2863 54.7971 77.3743 55.0171C77.4623 55.2224 77.631 55.3617 77.8803 55.4351C78.1297 55.5084 78.5257 55.5451 79.0683 55.5451C79.0977 55.5451 79.1123 55.5891 79.1123 55.6771C79.1123 55.7651 79.0977 55.8091 79.0683 55.8091C78.555 55.8091 78.1443 55.8017 77.8363 55.7871L75.9223 55.7651L74.2723 55.7871C73.979 55.8017 73.5757 55.8091 73.0623 55.8091C73.033 55.8091 73.0183 55.7651 73.0183 55.6771C73.0183 55.5891 73.033 55.5451 73.0623 55.5451C73.5757 55.5451 73.9497 55.5084 74.1843 55.4351C74.419 55.3617 74.5803 55.2224 74.6683 55.0171C74.7563 54.7971 74.8003 54.4671 74.8003 54.0271V43.8411C74.8003 43.4011 74.7563 43.0784 74.6683 42.8731C74.5803 42.6677 74.419 42.5284 74.1843 42.4551C73.9643 42.3671 73.605 42.3231 73.1063 42.3231C73.0623 42.3231 73.0403 42.2791 73.0403 42.1911C73.0403 42.1031 73.0623 42.0591 73.1063 42.0591L74.2943 42.0811C74.969 42.1104 75.5117 42.1251 75.9223 42.1251C76.4797 42.1251 77.125 42.1104 77.8583 42.0811L79.0683 42.0591C79.0977 42.0591 79.1123 42.1031 79.1123 42.1911C79.1123 42.2791 79.0977 42.3231 79.0683 42.3231C78.5403 42.3231 78.1517 42.3671 77.9023 42.4551C77.653 42.5431 77.477 42.6971 77.3743 42.9171C77.2863 43.1224 77.2423 43.4451 77.2423 43.8851V48.3511H84.3483V43.8851C84.3483 43.4451 84.3043 43.1224 84.2163 42.9171C84.1283 42.6971 83.9597 42.5431 83.7103 42.4551C83.461 42.3671 83.065 42.3231 82.5223 42.3231C82.4783 42.3231 82.4563 42.2791 82.4563 42.1911C82.4563 42.1031 82.4783 42.0591 82.5223 42.0591L83.6003 42.0811C84.3337 42.1104 84.9937 42.1251 85.5803 42.1251C85.9763 42.1251 86.541 42.1104 87.2743 42.0811L88.5063 42.0591C88.5503 42.0591 88.5723 42.1031 88.5723 42.1911C88.5723 42.2791 88.5503 42.3231 88.5063 42.3231C88.0077 42.3231 87.6337 42.3671 87.3843 42.4551C87.1497 42.5284 86.9883 42.6677 86.9003 42.8731C86.827 43.0784 86.7903 43.4011 86.7903 43.8411V54.0271C86.7903 54.4671 86.827 54.7971 86.9003 55.0171C86.9883 55.2224 87.1497 55.3617 87.3843 55.4351C87.619 55.5084 87.993 55.5451 88.5063 55.5451ZM97.2551 56.0731C95.8911 56.0731 94.6738 55.7577 93.6031 55.1271C92.5471 54.4817 91.7258 53.6164 91.1391 52.5311C90.5671 51.4311 90.2811 50.2357 90.2811 48.9451C90.2811 47.4344 90.6625 46.1437 91.4251 45.0731C92.1878 43.9877 93.1631 43.1737 94.3511 42.6311C95.5538 42.0884 96.7785 41.8171 98.0251 41.8171C99.4185 41.8171 100.643 42.1471 101.699 42.8071C102.755 43.4524 103.562 44.3104 104.119 45.3811C104.691 46.4517 104.977 47.5884 104.977 48.7911C104.977 50.1257 104.625 51.3504 103.921 52.4651C103.217 53.5797 102.271 54.4597 101.083 55.1051C99.9098 55.7504 98.6338 56.0731 97.2551 56.0731ZM97.9811 55.5231C98.8025 55.5231 99.5358 55.2884 100.181 54.8191C100.841 54.3351 101.354 53.6384 101.721 52.7291C102.088 51.8051 102.271 50.7051 102.271 49.4291C102.271 48.0797 102.066 46.8771 101.655 45.8211C101.244 44.7504 100.65 43.9144 99.8731 43.3131C99.0958 42.7117 98.1865 42.4111 97.1451 42.4111C95.8105 42.4111 94.7838 42.9171 94.0651 43.9291C93.3465 44.9264 92.9871 46.3271 92.9871 48.1311C92.9871 49.5537 93.1998 50.8297 93.6251 51.9591C94.0651 53.0737 94.6591 53.9464 95.4071 54.5771C96.1698 55.2077 97.0278 55.5231 97.9811 55.5231ZM115.045 56.0731C113.432 56.0731 112.024 55.7651 110.821 55.1491C109.618 54.5331 108.702 53.6971 108.071 52.6411C107.44 51.5704 107.125 50.3824 107.125 49.0771C107.125 47.6691 107.484 46.4151 108.203 45.3151C108.936 44.2004 109.934 43.3424 111.195 42.7411C112.471 42.1251 113.894 41.8171 115.463 41.8171C116.152 41.8171 116.849 41.8757 117.553 41.9931C118.257 42.0957 118.822 42.2351 119.247 42.4111C119.379 42.4551 119.46 42.5137 119.489 42.5871C119.533 42.6457 119.562 42.7557 119.577 42.9171L119.863 45.9751C119.863 46.0191 119.826 46.0484 119.753 46.0631C119.68 46.0777 119.628 46.0557 119.599 45.9971C119.086 44.8677 118.374 43.9877 117.465 43.3571C116.57 42.7264 115.544 42.4111 114.385 42.4111C112.889 42.4111 111.745 42.9317 110.953 43.9731C110.176 45.0144 109.787 46.4371 109.787 48.2411C109.787 49.6931 110.036 50.9911 110.535 52.1351C111.034 53.2644 111.723 54.1444 112.603 54.7751C113.498 55.3911 114.495 55.6991 115.595 55.6991C116.196 55.6991 116.658 55.6331 116.981 55.5011C117.304 55.3691 117.538 55.1124 117.685 54.7311C117.832 54.3497 117.905 53.7851 117.905 53.0371C117.905 52.2744 117.861 51.7464 117.773 51.4531C117.685 51.1451 117.494 50.9397 117.201 50.8371C116.922 50.7344 116.431 50.6831 115.727 50.6831C115.639 50.6831 115.595 50.6244 115.595 50.5071C115.595 50.4631 115.602 50.4264 115.617 50.3971C115.646 50.3531 115.676 50.3311 115.705 50.3311C116.952 50.4044 117.956 50.4411 118.719 50.4411C119.467 50.4411 120.244 50.4191 121.051 50.3751C121.08 50.3751 121.102 50.3971 121.117 50.4411C121.146 50.4704 121.161 50.4997 121.161 50.5291C121.161 50.6317 121.124 50.6831 121.051 50.6831C120.787 50.6684 120.604 50.7197 120.501 50.8371C120.398 50.9397 120.332 51.1597 120.303 51.4971C120.274 51.8197 120.259 52.4064 120.259 53.2571C120.259 53.9171 120.281 54.3864 120.325 54.6651C120.384 54.9437 120.413 55.1197 120.413 55.1931C120.413 55.2811 120.391 55.3397 120.347 55.3691C120.318 55.3984 120.252 55.4277 120.149 55.4571C118.257 55.8677 116.556 56.0731 115.045 56.0731Z" fill="white"/>
        <rect x="86.7191" y="17.9983" width="31.2809" height="1.30337" fill="white"/>
        <rect x="2" y="17.9983" width="29.9775" height="1.30337" fill="white"/>
    </symbol>
    <symbol id="arrow-right" viewBox="0 0 10 10">
        <path d="M2.307 9.12a.418.418 0 0 0 .43-.027l5.417-3.75a.417.417 0 0 0 0-.685L2.737.908a.417.417 0 0 0-.654.342v7.5a.417.417 0 0 0 .224.37Z" fill="currentColor"/>
    </symbol>
    <symbol id="hedgehog" viewBox="0 0 72 72" fill="none">
        <path d="M13.588 35.586S9.42 40.752 9.92 43.919l-2.833 2.5v1.5s6.833 2.833 13.333.833v2.5l.167 2.5 3.333 1.333s3.833-.666 4.833-6c0 0 4 1.5 5.667 5.834l4.667-.334s.666-2.5-.167-4.166l20.5-.334 2 1.834v2l1 1.166h2.167l1.666-1.833-1.833-6.5 1.5-4.667s-17.333 10.5-41.333-3.166l-1.833-3.834s-3.834.667-3.667 1.667c0 0-.834-2.666-5.5-1.166h.001Z" fill="#9B9B9A"/>
        <path d="M24.463 26.638c-.856 2.25-1.833 3.294-2.614 4.086a1.56 1.56 0 0 1-2.074.146l-1.184-.926-3.424 5.054a2.432 2.432 0 0 1-2.012 1.067s-2.672 3.271-3.602 6.806c-.26.991-.882 1.85-1.704 2.462l-.381.285s-2.35 1.962.455 2.815c0 0 9.623 3.04 14.956-1.21m18.5-24.918s-1.824 1.227-3.2 1.49c-.59.112-1.162.23-1.715.35l-3.168-.673c-1.571 1.795-3.754 2.65-5.291 3.324m31.958 2.01c-1.986 0-2.55-.154-3.67-1.058a9.298 9.298 0 0 1-2.172-2.507l-.408-.69c-2.641 0-5.467-.32-8.048-.744M66.254 38.5c-3.096-1.154-3.534-4.415-4.558-5.735m-40.878 18.98-.227.473a2.001 2.001 0 0 0 1.802 2.867h1.627a2 2 0 0 0 1.76-1.048l2.845-5.263s3.501 1.45 4.754 5.036c.273.781 1.049 1.275 1.876 1.275h2.023a1.997 1.997 0 0 0 1.99-2.207c-.103-.928-.291-1.89-.633-2.313 0 0 15.156.437 20.007-.612 1.024-.222 2.044.398 2.27 1.421.11.496.175 1.052.142 1.637-.064 1.14.853 2.074 1.994 2.074h.39c1.124 0 2-.8 2.073-1.842.123-1.744-.014-4.392-1.548-6.43 0 0 1.133-.993 1.112-4.088M19.21 37.218s2.124-3.327 4.02-.342c1.279 2.015-.308 5.042-1.475 6.798a2.097 2.097 0 0 1-2.544.776m8.21-9.853 5-4.125m-.875 9.648 6-2.058m-.625-5.297 6.047-2.793m-3.024 13.5 6.852-.747m2-6.092 6.875 1.232m-8.727-5.375 5.454-2.503m.642 13.782 6.261 1.677" stroke="#195557" stroke-width="2" stroke-miterlimit="10" stroke-linecap="round" stroke-linejoin="round"/>
    </symbol>
    <symbol id="syringe" viewBox="0 0 46 46" fill="none">
        <path d="M33.377 5.435 31.31 7.504l.539.539-3.28 3.279 2.022 2.067 3.282-3.326 2.066 2.067-3.325 3.277 2.067 2.023 3.279-3.28.539.54 2.068-2.069-7.189-7.186Zm-7.906 5.031-2.069 2.069.945.943-14.285 14.329-.494.493.09.676.494 4.581.046.493.133.09-4.67 4.672h4.088l2.921-2.92 4.356.45.675.09.494-.495 14.33-14.285.943.944 2.067-2.067-10.064-10.063Zm.943 5.078 4.044 4.042-13.792 13.836-3.414-.404-.27-.27-.404-3.414 13.836-13.79Z" fill="#195557"/>
    </symbol>
    <symbol id="syringe-white" viewBox="0 0 28 30" fill="none">
        <g filter="url(#filter0_d_1345_412)">
        <path d="M19.8655 3.07202L18.6963 4.24121L19.001 4.5459L17.1476 6.39921L18.29 7.56758L20.145 5.68746L21.3125 6.85583L19.4332 8.70833L20.6016 9.85152L22.4549 7.99821L22.7596 8.3029L23.9288 7.13371L19.8655 3.07202ZM15.3967 5.91577L14.2275 7.08496L14.7613 7.61796L6.68752 15.717L6.40802 15.9956L6.45921 16.3775L6.7379 18.967L6.7639 19.2456L6.83946 19.2968L4.19965 21.9375H6.5104L8.1614 20.2873L10.6233 20.5408L11.0051 20.592L11.2838 20.3125L19.3836 12.2378L19.9166 12.7716L21.085 11.6033L15.3967 5.91577ZM15.9297 8.78552L18.2153 11.0703L10.4201 18.8906L8.49046 18.6623L8.33771 18.5095L8.1094 16.5798L15.9297 8.78552Z" fill="white"/>
        </g>
        <defs>
        <filter id="filter0_d_1345_412" x="-3" y="0" width="34" height="34" filterUnits="userSpaceOnUse" color-interpolation-filters="sRGB">
        <feFlood flood-opacity="0" result="BackgroundImageFix"/>
        <feColorMatrix in="SourceAlpha" type="matrix" values="0 0 0 0 0 0 0 0 0 0 0 0 0 0 0 0 0 0 127 0" result="hardAlpha"/>
        <feOffset dy="4"/>
        <feGaussianBlur stdDeviation="2"/>
        <feColorMatrix type="matrix" values="0 0 0 0 0 0 0 0 0 0 0 0 0 0 0 0 0 0 0.25 0"/>
        <feBlend mode="normal" in2="BackgroundImageFix" result="effect1_dropShadow_1345_412"/>
        <feBlend mode="normal" in="SourceGraphic" in2="effect1_dropShadow_1345_412" result="shape"/>
        </filter>
        </defs>
    </symbol>
    <symbol id="heart" viewBox="0 0 43 43" fill="none">
        <path d="M38.759 11.909a10.92 10.92 0 0 0-2.39-3.477 11.102 11.102 0 0 0-3.527-2.33 11.143 11.143 0 0 0-4.3-.853A11.215 11.215 0 0 0 21.5 7.731a11.215 11.215 0 0 0-7.042-2.482c-1.49 0-2.935.286-4.3.852A11.08 11.08 0 0 0 6.63 8.432a10.853 10.853 0 0 0-3.272 7.756c0 1.398.286 2.856.853 4.338.474 1.239 1.155 2.523 2.024 3.821 1.377 2.053 3.271 4.195 5.623 6.366 3.896 3.599 7.756 6.085 7.92 6.186l.994.638a1.349 1.349 0 0 0 1.45 0l.995-.638c.163-.105 4.018-2.587 7.92-6.186 2.35-2.17 4.245-4.313 5.622-6.366.87-1.298 1.554-2.582 2.024-3.821.567-1.482.852-2.94.852-4.338a10.691 10.691 0 0 0-.877-4.279ZM21.5 34.215S6.55 24.637 6.55 16.188c0-4.279 3.54-7.748 7.908-7.748 3.07 0 5.732 1.714 7.042 4.216 1.31-2.502 3.973-4.216 7.042-4.216 4.367 0 7.907 3.469 7.907 7.748 0 8.449-14.949 18.027-14.949 18.027Z" fill="#195557"/>
        <path d="M28.542 8.44c-3.07 0-5.732 1.714-7.042 4.216-1.31-2.502-3.973-4.216-7.042-4.216-4.367 0-7.907 3.469-7.907 7.748 0 8.449 14.949 18.027 14.949 18.027s14.95-9.578 14.95-18.027c0-4.279-3.54-7.748-7.908-7.748Z" fill="#000" fill-opacity=".1"/>
    </symbol>
    <symbol id="heart-white" viewBox="0 0 22 22" fill="none"><path d="M19.83 6.093a5.586 5.586 0 0 0-1.222-1.779 5.7 5.7 0 0 0-4.005-1.629A5.738 5.738 0 0 0 11 3.956a5.738 5.738 0 0 0-3.603-1.27 5.7 5.7 0 0 0-4.005 1.63A5.552 5.552 0 0 0 1.72 8.281c0 .716.146 1.461.436 2.22a9.94 9.94 0 0 0 1.035 1.955c.705 1.05 1.674 2.146 2.877 3.257a32.157 32.157 0 0 0 4.052 3.164l.51.327a.69.69 0 0 0 .74 0l.51-.327a32.567 32.567 0 0 0 4.052-3.164c1.203-1.111 2.172-2.207 2.876-3.257a9.833 9.833 0 0 0 1.036-1.955c.29-.759.436-1.504.436-2.22a5.47 5.47 0 0 0-.449-2.189ZM11 17.506s-7.648-4.901-7.648-9.224c0-2.189 1.81-3.964 4.045-3.964 1.57 0 2.933.877 3.603 2.157a4.057 4.057 0 0 1 3.603-2.157c2.234 0 4.045 1.775 4.045 3.964 0 4.323-7.648 9.224-7.648 9.224Z" fill="#fff"/><path d="M14.603 4.318c-1.57 0-2.933.877-3.603 2.157a4.057 4.057 0 0 0-3.603-2.157c-2.234 0-4.045 1.775-4.045 3.964 0 4.323 7.648 9.224 7.648 9.224s7.648-4.901 7.648-9.224c0-2.189-1.81-3.964-4.045-3.964Z" fill="#000" fill-opacity=".1"/></symbol>
    <symbol id="basket" viewBox="0 0 45 38" fill="none"><path d="M12.643 37.772c1.479 0 2.677-1.126 2.677-2.515 0-1.388-1.198-2.514-2.677-2.514-1.478 0-2.676 1.126-2.676 2.514 0 1.39 1.198 2.515 2.676 2.515ZM28.904 37.772c1.478 0 2.676-1.126 2.676-2.515 0-1.388-1.198-2.514-2.676-2.514-1.478 0-2.677 1.126-2.677 2.514 0 1.39 1.199 2.515 2.677 2.515ZM36.136 8.011a1.18 1.18 0 0 0-.409-.303 1.254 1.254 0 0 0-.507-.11H10.455l.773 2.235h22.434l-3.176 13.41H12.643L7.207 7.073a1.109 1.109 0 0 0-.297-.455 1.207 1.207 0 0 0-.488-.272L1.546 4.938a1.268 1.268 0 0 0-.91.08c-.28.14-.49.378-.583.663-.093.284-.062.592.086.855s.402.46.705.547l4.27 1.23 5.46 16.204-1.951 1.498-.155.145a2.874 2.874 0 0 0-.773 1.878 2.858 2.858 0 0 0 .678 1.91c.324.371.736.665 1.203.86.467.193.976.282 1.485.258h19.853c.316 0 .618-.117.841-.327.223-.21.349-.494.349-.79 0-.297-.126-.58-.349-.79a1.23 1.23 0 0 0-.84-.328H10.87a.835.835 0 0 1-.387-.109.772.772 0 0 1-.281-.273.713.713 0 0 1 .002-.735l2.867-2.235h18.365c.275.006.544-.078.761-.236.217-.16.368-.384.429-.636l3.77-15.646a1.052 1.052 0 0 0-.013-.503 1.096 1.096 0 0 0-.248-.447Z" fill="#195557"/><circle cx="35.5" cy="9.5" r="9.5" fill="#FFEDCD"/><path d="M37.68 11.79V13h-4.02v-1.21h1.38V7.17c-.053.08-.143.17-.27.27-.12.093-.26.187-.42.28-.153.087-.313.16-.48.22-.16.06-.307.09-.44.09V6.79c.18 0 .363-.047.55-.14.187-.1.357-.207.51-.32.16-.12.29-.23.39-.33.1-.1.153-.157.16-.17h1.37v5.96h1.27Z" fill="#000"/></symbol>
    <symbol id="plus" viewBox="0 0 40 40" fill="none"><path d="M31.667 18.333h-10v-10a1.667 1.667 0 1 0-3.334 0v10h-10a1.667 1.667 0 0 0 0 3.334h10v10a1.666 1.666 0 1 0 3.334 0v-10h10a1.667 1.667 0 0 0 0-3.334Z" fill="#195557"/></symbol>
    <symbol id="instagram" viewBox="0 0 40 40" fill="none"><path d="M20 5C11.667 5 5 11.667 5 20s6.667 15 15 15 15-6.667 15-15S28.333 5 20 5Zm0 11.667c1.833 0 3.333 1.5 3.333 3.333 0 1.833-1.5 3.333-3.333 3.333A3.343 3.343 0 0 1 16.667 20c0-1.833 1.5-3.333 3.333-3.333Zm4.667-3.334c0-1.166 1-2 2-2s2 1 2 2-.834 2-2 2c-1.167 0-2-.833-2-2ZM20 31.667C13.5 31.667 8.333 26.5 8.333 20h5c0 3.667 3 6.667 6.667 6.667s6.667-3 6.667-6.667h5c0 6.5-5.167 11.667-11.667 11.667Z" fill="currentColor"/></symbol>
    <symbol id="facebook" viewBox="0 0 40 40" fill="none"><path d="M30.59 9.373C27.673 6.472 24.11 5 20 5c-4.148 0-7.722 1.473-10.622 4.375C6.473 12.277 5 15.853 5 20c0 4.108 1.472 7.672 4.373 10.59C12.275 33.517 15.85 35 20 35c4.112 0 7.675-1.483 10.593-4.405C33.518 27.673 35 24.108 35 20c0-4.147-1.483-7.723-4.41-10.627Zm-2.353 18.865c-1.895 1.899-4.06 2.98-6.57 3.309v-8.214H25V20h-3.333v-2.333a1 1 0 0 1 1.001-1H25v-3.334h-2.328c-1.237 0-2.269.455-3.095 1.37-.827.912-1.244 2.025-1.244 3.347V20H15v3.333h3.333v8.217c-2.536-.325-4.71-1.408-6.595-3.307C9.447 25.937 8.333 23.24 8.333 20c0-3.277 1.112-5.98 3.404-8.267 2.283-2.288 4.986-3.4 8.263-3.4 3.242 0 5.937 1.114 8.242 3.405 2.305 2.287 3.425 4.99 3.425 8.262 0 3.235-1.122 5.932-3.43 8.238Z" fill="currentColor"/></symbol>
    <symbol id="twitter" viewBox="0 0 40 40" fill="none"><path d="M25.465 17.138c.597-.368.995-.868 1.188-1.506a6.425 6.425 0 0 1-1.741.638 2.585 2.585 0 0 0-1.97-.845c-.774 0-1.425.272-1.959.798a2.644 2.644 0 0 0-.796 1.93c0 .229.028.434.086.607-2.28-.08-4.165-1.023-5.651-2.843a2.74 2.74 0 0 0-.379 1.366c0 .964.407 1.727 1.217 2.289a3.016 3.016 0 0 1-1.217-.349c0 .689.202 1.264.609 1.77.405.5.928.82 1.565.955-.237.06-.48.09-.725.089a1.379 1.379 0 0 1-.494-.062c.174.562.494 1.015.957 1.363.462.35.995.534 1.595.55a5.327 5.327 0 0 1-3.392 1.157c-.313 0-.533-.003-.666-.028a7.557 7.557 0 0 0 4.201 1.221c1.585 0 2.987-.401 4.204-1.205 1.216-.798 2.118-1.783 2.695-2.945a7.988 7.988 0 0 0 .868-3.623v-.348a5.78 5.78 0 0 0 1.363-1.424 5.751 5.751 0 0 1-1.558.445ZM20 35c-4.15 0-7.725-1.483-10.627-4.41C6.472 27.672 5 24.108 5 20c0-4.147 1.473-7.723 4.378-10.625C12.278 6.473 15.852 5 20 5c4.11 0 7.673 1.472 10.59 4.373C33.517 12.277 35 15.853 35 20c0 4.108-1.482 7.673-4.407 10.595C27.675 33.517 24.112 35 20 35Zm0-26.667c-3.277 0-5.98 1.112-8.263 3.4C9.445 14.02 8.333 16.723 8.333 20c0 3.24 1.114 5.937 3.405 8.242 2.287 2.305 4.989 3.425 8.262 3.425 3.238 0 5.933-1.122 8.237-3.429 2.308-2.306 3.43-5.003 3.43-8.238 0-3.272-1.12-5.975-3.425-8.262-2.305-2.291-5-3.405-8.242-3.405Z" fill="currentColor"/></symbol>
    <symbol id="arrow-right-stroke" viewBox="0 0 24 24" fill="none"><path d="m10.883 23.934 12.75-11.126a1.072 1.072 0 0 0 .27-1.255 1.073 1.073 0 0 0-.27-.365L10.883.066a.265.265 0 0 0-.44.2v2.716c0 .154.067.302.183.406l8.41 7.338H.266a.268.268 0 0 0-.266.268v2.011c0 .148.12.269.267.269h18.769l-8.41 7.338a.533.533 0 0 0-.183.405v2.716c0 .228.267.352.44.2Z" fill="#70908B"/></symbol>
    <symbol id="phone" viewBox="0 0 32 32" fill="none"><path d="m20.33 21.48 2.24-2.24a2.19 2.19 0 0 1 2.34-.48l2.73 1.09a2.18 2.18 0 0 1 1.36 2v5A2.17 2.17 0 0 1 26.72 29C7.59 27.81 3.73 11.61 3 5.41A2.17 2.17 0 0 1 5.17 3H10a2.16 2.16 0 0 1 2 1.36l1.09 2.73a2.16 2.16 0 0 1-.47 2.34l-2.24 2.24s1.29 8.73 9.95 9.81Z" fill="#195557"/></symbol>
    <symbol id="arrow-right" viewBox="0 0 10 10" fill="none"><path d="M2.307 9.12a.418.418 0 0 0 .43-.027l5.417-3.75a.417.417 0 0 0 0-.685L2.737.908a.417.417 0 0 0-.654.342v7.5a.417.417 0 0 0 .224.37Z" fill="#195557"/></symbol>
    <symbol id="question" viewBox="0 0 37 37" fill="none"><path d="M18.5 2.313C9.56 2.313 2.312 9.56 2.312 18.5c0 8.94 7.249 16.188 16.188 16.188 8.94 0 16.188-7.249 16.188-16.188 0-8.94-7.249-16.188-16.188-16.188Zm0 29.628c-7.422 0-13.441-6.02-13.441-13.441 0-7.422 6.02-13.441 13.441-13.441 7.422 0 13.441 6.02 13.441 13.441 0 7.422-6.02 13.441-13.441 13.441Z" fill="#195557"/><path d="M16.766 12.14a1.735 1.735 0 1 0 3.469 0 1.735 1.735 0 0 0-3.47 0Zm2.601 4.047h-1.734a.29.29 0 0 0-.29.29v9.828c0 .159.13.289.29.289h1.734a.29.29 0 0 0 .29-.29v-9.827a.29.29 0 0 0-.29-.29Z" fill="#195557"/></symbol>
    <symbol id="plus" viewBox="0 0 40 40" fill="none"><path d="M31.667 18.333h-10v-10a1.667 1.667 0 1 0-3.334 0v10h-10a1.667 1.667 0 1 0 0 3.334h10v10a1.667 1.667 0 1 0 3.334 0v-10h10a1.667 1.667 0 0 0 0-3.334Z" fill="#195557"/></symbol>
    <symbol id="ej" viewBox="0 0 41 41" fill="none">
        <path d="M7.7376 20.2643C7.7376 20.2643 5.36416 23.206 5.64888 25.0095L4.03564 26.4331V27.2873C4.03564 27.2873 7.92666 28.9005 11.628 27.7616V29.1852L11.7231 30.6088L13.6211 31.3679C13.6211 31.3679 15.8038 30.9886 16.3732 27.9512C16.3732 27.9512 18.651 28.8054 19.6003 31.2734L22.2579 31.0832C22.2579 31.0832 22.6371 29.6596 22.1628 28.7109L33.8364 28.5207L34.9753 29.565V30.7039L35.5447 31.3679H36.7787L37.7274 30.3241L36.6836 26.6227L37.5378 23.9651C37.5378 23.9651 27.6676 29.9443 14.0009 22.1623L12.9571 19.979C12.9571 19.979 10.7739 20.3588 10.869 20.9283C10.869 20.9283 10.3941 19.4101 7.73703 20.2643H7.7376Z" fill="#9B9B9A"/>
        <path d="M10.5849 17.3692L8.5918 20.5011C8.5918 20.5011 10.9168 20.5962 10.8696 21.4025C10.8217 22.2094 12.2932 22.7789 10.6321 25.1518L11.8661 25.7212L12.6724 25.1039L13.5744 23.1109L14.0015 22.1622C14.0015 22.1622 24.8677 30.3713 37.5378 23.965L38.4392 22.2567L35.592 19.4095L35.26 18.1761L34.8802 16.5623L32.6503 16.1352L30.6572 13.8574L26.1489 13.0983L23.7288 12.1969L21.5461 13.7629L19.3628 13.2407L16.9905 14.9018L15.8989 14.949L13.9531 14.7594L12.6719 17.5115L11.3434 17.5588L10.5843 17.3692H10.5849Z" fill="#195557"/>
        <path d="M13.9303 15.1688C13.4429 16.4501 12.8865 17.0446 12.4418 17.4956C12.2896 17.6523 12.085 17.7474 11.8672 17.7628C11.6493 17.7781 11.4334 17.7126 11.2608 17.5787L10.5865 17.0514L8.63676 19.9294C8.50995 20.1165 8.33922 20.2698 8.13949 20.3757C7.93976 20.4816 7.71712 20.537 7.49104 20.537C7.49104 20.537 5.96948 22.3996 5.4399 24.4126C5.29184 24.9769 4.93765 25.4661 4.46957 25.8146L4.25261 25.9769C4.25261 25.9769 2.91441 27.0941 4.5117 27.5799C4.5117 27.5799 9.99147 29.3104 13.0283 26.8903" stroke="black" stroke-width="2" stroke-miterlimit="10" stroke-linecap="round" stroke-linejoin="round"/>
        <path d="M23.5631 12.7014C23.5631 12.7014 22.5244 13.4001 21.7409 13.5493C21.4049 13.6137 21.0792 13.6803 20.7643 13.7486L18.9603 13.366C18.0657 14.3881 16.8226 14.875 15.9473 15.2588" stroke="black" stroke-width="2" stroke-miterlimit="10" stroke-linecap="round" stroke-linejoin="round"/>
        <path d="M34.1456 16.4028C33.0147 16.4028 32.6935 16.3157 32.0557 15.8009C31.5612 15.4031 31.1422 14.9195 30.8189 14.3733L30.5866 13.9804C29.0826 13.9804 27.4734 13.7982 26.0037 13.5568" stroke="black" stroke-width="2" stroke-miterlimit="10" stroke-linecap="round" stroke-linejoin="round"/>
        <path d="M37.728 21.9236C35.965 21.2665 35.7156 19.4095 35.1324 18.6578" stroke="black" stroke-width="2" stroke-miterlimit="10" stroke-linecap="round" stroke-linejoin="round"/>
        <path d="M11.8547 29.4659L11.7254 29.7352C11.6419 29.9088 11.6038 30.1008 11.6147 30.2931C11.6255 30.4854 11.685 30.6719 11.7875 30.835C11.89 30.9981 12.0322 31.1325 12.2008 31.2257C12.3694 31.3189 12.5589 31.3678 12.7516 31.3678H13.6781C13.8834 31.3679 14.0849 31.3125 14.2614 31.2075C14.4378 31.1024 14.5825 30.9516 14.6803 30.771L16.3003 27.774C16.3003 27.774 18.294 28.5997 19.0075 30.6418C19.1629 31.0865 19.6048 31.3678 20.0758 31.3678H21.2277C21.3874 31.3682 21.5453 31.335 21.6913 31.2703C21.8372 31.2056 21.9679 31.1109 22.0748 30.9923C22.1817 30.8738 22.2625 30.734 22.3118 30.5822C22.3611 30.4303 22.3778 30.2698 22.3609 30.111C22.3023 29.5826 22.1952 29.0348 22.0005 28.7939C22.0005 28.7939 30.631 29.0428 33.3934 28.4454C33.9765 28.319 34.5573 28.6721 34.686 29.2546C34.7486 29.537 34.7856 29.8537 34.7669 30.1868C34.7304 30.8359 35.2526 31.3678 35.9023 31.3678H36.1244C36.7645 31.3678 37.2633 30.9122 37.3049 30.3189C37.3749 29.3258 37.2969 27.8179 36.4234 26.6568C36.4234 26.6568 37.0685 26.0919 37.0566 24.3295" stroke="black" stroke-width="2" stroke-miterlimit="10" stroke-linecap="round" stroke-linejoin="round"/>
        <path d="M10.939 21.1936C10.939 21.1936 12.1485 19.2991 13.2282 20.9989C13.9565 22.1463 13.0528 23.87 12.3883 24.8699C12.2351 25.0997 12.0071 25.2694 11.7429 25.3499C11.4788 25.4305 11.1949 25.417 10.9396 25.3118V25.3118" stroke="black" stroke-width="2" stroke-miterlimit="10" stroke-linecap="round" stroke-linejoin="round"/>
        <path d="M15.6147 19.701L18.462 17.3521" stroke="black" stroke-width="2" stroke-miterlimit="10" stroke-linecap="round" stroke-linejoin="round"/>
        <path d="M17.9637 22.8461L21.3804 21.6742" stroke="black" stroke-width="2" stroke-miterlimit="10" stroke-linecap="round" stroke-linejoin="round"/>
        <path d="M21.0245 18.6578L24.4679 17.0674" stroke="black" stroke-width="2" stroke-miterlimit="10" stroke-linecap="round" stroke-linejoin="round"/>
        <path d="M22.7459 24.7548L26.6477 24.3295" stroke="black" stroke-width="2" stroke-miterlimit="10" stroke-linecap="round" stroke-linejoin="round"/>
        <path d="M27.7866 20.8605L31.7016 21.562" stroke="black" stroke-width="2" stroke-miterlimit="10" stroke-linecap="round" stroke-linejoin="round"/>
        <path d="M26.732 18.5012L29.8377 17.0759" stroke="black" stroke-width="2" stroke-miterlimit="10" stroke-linecap="round" stroke-linejoin="round"/>
        <path d="M30.2033 24.924L33.7686 25.8789" stroke="black" stroke-width="2" stroke-miterlimit="10" stroke-linecap="round" stroke-linejoin="round"/>
    </symbol>
</svg>
